<mxfile host="Electron" agent="Mozilla/5.0 (Windows NT 10.0; Win64; x64) AppleWebKit/537.36 (KHTML, like Gecko) draw.io/25.0.2 Chrome/128.0.6613.186 Electron/32.2.5 Safari/537.36" version="25.0.2">
  <diagram id="C5RBs43oDa-KdzZeNtuy" name="Page-1">
    <mxGraphModel dx="1248" dy="592" grid="1" gridSize="10" guides="1" tooltips="1" connect="1" arrows="1" fold="1" page="1" pageScale="1" pageWidth="827" pageHeight="1169" math="0" shadow="0">
      <root>
        <mxCell id="WIyWlLk6GJQsqaUBKTNV-0" />
        <mxCell id="WIyWlLk6GJQsqaUBKTNV-1" parent="WIyWlLk6GJQsqaUBKTNV-0" />
        <mxCell id="U3Z7cktMEqCGYMDvR2EI-0" value="Struct Cell&lt;div&gt;{&lt;span style=&quot;background-color: initial;&quot;&gt;x,&amp;nbsp;&lt;/span&gt;&lt;/div&gt;&lt;div&gt;y,&amp;nbsp;&lt;/div&gt;&lt;div&gt;height&lt;span style=&quot;background-color: initial;&quot;&gt;}&lt;/span&gt;&lt;/div&gt;" style="rounded=0;whiteSpace=wrap;html=1;" vertex="1" parent="WIyWlLk6GJQsqaUBKTNV-1">
          <mxGeometry x="20" y="100" width="120" height="80" as="geometry" />
        </mxCell>
        <mxCell id="U3Z7cktMEqCGYMDvR2EI-3" value="" style="edgeStyle=orthogonalEdgeStyle;rounded=0;orthogonalLoop=1;jettySize=auto;html=1;" edge="1" parent="WIyWlLk6GJQsqaUBKTNV-1" source="U3Z7cktMEqCGYMDvR2EI-1" target="U3Z7cktMEqCGYMDvR2EI-2">
          <mxGeometry relative="1" as="geometry" />
        </mxCell>
        <mxCell id="U3Z7cktMEqCGYMDvR2EI-1" value="Start" style="ellipse;whiteSpace=wrap;html=1;" vertex="1" parent="WIyWlLk6GJQsqaUBKTNV-1">
          <mxGeometry x="390" y="90" width="120" height="50" as="geometry" />
        </mxCell>
        <mxCell id="U3Z7cktMEqCGYMDvR2EI-5" value="" style="edgeStyle=orthogonalEdgeStyle;rounded=0;orthogonalLoop=1;jettySize=auto;html=1;" edge="1" parent="WIyWlLk6GJQsqaUBKTNV-1" source="U3Z7cktMEqCGYMDvR2EI-2" target="U3Z7cktMEqCGYMDvR2EI-4">
          <mxGeometry relative="1" as="geometry" />
        </mxCell>
        <mxCell id="U3Z7cktMEqCGYMDvR2EI-2" value="init variables" style="whiteSpace=wrap;html=1;" vertex="1" parent="WIyWlLk6GJQsqaUBKTNV-1">
          <mxGeometry x="390" y="160" width="120" height="30" as="geometry" />
        </mxCell>
        <mxCell id="U3Z7cktMEqCGYMDvR2EI-7" value="" style="edgeStyle=orthogonalEdgeStyle;rounded=0;orthogonalLoop=1;jettySize=auto;html=1;" edge="1" parent="WIyWlLk6GJQsqaUBKTNV-1" source="U3Z7cktMEqCGYMDvR2EI-4" target="U3Z7cktMEqCGYMDvR2EI-6">
          <mxGeometry relative="1" as="geometry" />
        </mxCell>
        <mxCell id="U3Z7cktMEqCGYMDvR2EI-4" value="input values for the variables" style="shape=parallelogram;perimeter=parallelogramPerimeter;whiteSpace=wrap;html=1;fixedSize=1;" vertex="1" parent="WIyWlLk6GJQsqaUBKTNV-1">
          <mxGeometry x="390" y="210" width="120" height="40" as="geometry" />
        </mxCell>
        <mxCell id="U3Z7cktMEqCGYMDvR2EI-9" value="" style="edgeStyle=orthogonalEdgeStyle;rounded=0;orthogonalLoop=1;jettySize=auto;html=1;" edge="1" parent="WIyWlLk6GJQsqaUBKTNV-1" source="U3Z7cktMEqCGYMDvR2EI-6" target="U3Z7cktMEqCGYMDvR2EI-8">
          <mxGeometry relative="1" as="geometry" />
        </mxCell>
        <mxCell id="U3Z7cktMEqCGYMDvR2EI-6" value="x--&lt;div&gt;y--&lt;/div&gt;" style="whiteSpace=wrap;html=1;" vertex="1" parent="WIyWlLk6GJQsqaUBKTNV-1">
          <mxGeometry x="390" y="270" width="120" height="30" as="geometry" />
        </mxCell>
        <mxCell id="U3Z7cktMEqCGYMDvR2EI-11" value="" style="edgeStyle=orthogonalEdgeStyle;rounded=0;orthogonalLoop=1;jettySize=auto;html=1;" edge="1" parent="WIyWlLk6GJQsqaUBKTNV-1" source="U3Z7cktMEqCGYMDvR2EI-8" target="U3Z7cktMEqCGYMDvR2EI-10">
          <mxGeometry relative="1" as="geometry" />
        </mxCell>
        <mxCell id="U3Z7cktMEqCGYMDvR2EI-8" value="calculate peak_heigh" style="whiteSpace=wrap;html=1;" vertex="1" parent="WIyWlLk6GJQsqaUBKTNV-1">
          <mxGeometry x="390" y="320" width="120" height="30" as="geometry" />
        </mxCell>
        <mxCell id="U3Z7cktMEqCGYMDvR2EI-13" value="" style="edgeStyle=orthogonalEdgeStyle;rounded=0;orthogonalLoop=1;jettySize=auto;html=1;" edge="1" parent="WIyWlLk6GJQsqaUBKTNV-1" source="U3Z7cktMEqCGYMDvR2EI-10" target="U3Z7cktMEqCGYMDvR2EI-12">
          <mxGeometry relative="1" as="geometry" />
        </mxCell>
        <mxCell id="U3Z7cktMEqCGYMDvR2EI-10" value="init vectors" style="whiteSpace=wrap;html=1;" vertex="1" parent="WIyWlLk6GJQsqaUBKTNV-1">
          <mxGeometry x="390" y="370" width="120" height="30" as="geometry" />
        </mxCell>
        <mxCell id="U3Z7cktMEqCGYMDvR2EI-15" value="" style="edgeStyle=orthogonalEdgeStyle;rounded=0;orthogonalLoop=1;jettySize=auto;html=1;" edge="1" parent="WIyWlLk6GJQsqaUBKTNV-1" source="U3Z7cktMEqCGYMDvR2EI-12" target="U3Z7cktMEqCGYMDvR2EI-14">
          <mxGeometry relative="1" as="geometry" />
        </mxCell>
        <mxCell id="U3Z7cktMEqCGYMDvR2EI-12" value="init queue and add elements" style="whiteSpace=wrap;html=1;" vertex="1" parent="WIyWlLk6GJQsqaUBKTNV-1">
          <mxGeometry x="390" y="420" width="120" height="30" as="geometry" />
        </mxCell>
        <mxCell id="U3Z7cktMEqCGYMDvR2EI-17" value="" style="edgeStyle=orthogonalEdgeStyle;rounded=0;orthogonalLoop=1;jettySize=auto;html=1;" edge="1" parent="WIyWlLk6GJQsqaUBKTNV-1" source="U3Z7cktMEqCGYMDvR2EI-14" target="U3Z7cktMEqCGYMDvR2EI-16">
          <mxGeometry relative="1" as="geometry" />
        </mxCell>
        <mxCell id="U3Z7cktMEqCGYMDvR2EI-14" value="add values for elements of vector map" style="whiteSpace=wrap;html=1;" vertex="1" parent="WIyWlLk6GJQsqaUBKTNV-1">
          <mxGeometry x="390" y="470" width="120" height="50" as="geometry" />
        </mxCell>
        <mxCell id="U3Z7cktMEqCGYMDvR2EI-19" value="" style="edgeStyle=orthogonalEdgeStyle;rounded=0;orthogonalLoop=1;jettySize=auto;html=1;" edge="1" parent="WIyWlLk6GJQsqaUBKTNV-1" source="U3Z7cktMEqCGYMDvR2EI-16" target="U3Z7cktMEqCGYMDvR2EI-18">
          <mxGeometry relative="1" as="geometry" />
        </mxCell>
        <mxCell id="U3Z7cktMEqCGYMDvR2EI-40" value="" style="edgeStyle=orthogonalEdgeStyle;rounded=0;orthogonalLoop=1;jettySize=auto;html=1;" edge="1" parent="WIyWlLk6GJQsqaUBKTNV-1" source="U3Z7cktMEqCGYMDvR2EI-16" target="U3Z7cktMEqCGYMDvR2EI-39">
          <mxGeometry relative="1" as="geometry" />
        </mxCell>
        <mxCell id="U3Z7cktMEqCGYMDvR2EI-16" value="is queue empty?" style="rhombus;whiteSpace=wrap;html=1;" vertex="1" parent="WIyWlLk6GJQsqaUBKTNV-1">
          <mxGeometry x="410" y="540" width="80" height="50" as="geometry" />
        </mxCell>
        <mxCell id="U3Z7cktMEqCGYMDvR2EI-21" value="" style="edgeStyle=orthogonalEdgeStyle;rounded=0;orthogonalLoop=1;jettySize=auto;html=1;" edge="1" parent="WIyWlLk6GJQsqaUBKTNV-1" source="U3Z7cktMEqCGYMDvR2EI-18" target="U3Z7cktMEqCGYMDvR2EI-20">
          <mxGeometry relative="1" as="geometry" />
        </mxCell>
        <mxCell id="U3Z7cktMEqCGYMDvR2EI-18" value="put current element to the front" style="whiteSpace=wrap;html=1;" vertex="1" parent="WIyWlLk6GJQsqaUBKTNV-1">
          <mxGeometry x="390" y="610" width="120" height="30" as="geometry" />
        </mxCell>
        <mxCell id="U3Z7cktMEqCGYMDvR2EI-23" value="" style="edgeStyle=orthogonalEdgeStyle;rounded=0;orthogonalLoop=1;jettySize=auto;html=1;" edge="1" parent="WIyWlLk6GJQsqaUBKTNV-1" source="U3Z7cktMEqCGYMDvR2EI-20" target="U3Z7cktMEqCGYMDvR2EI-22">
          <mxGeometry relative="1" as="geometry" />
        </mxCell>
        <mxCell id="U3Z7cktMEqCGYMDvR2EI-20" value="delete element from queue" style="whiteSpace=wrap;html=1;" vertex="1" parent="WIyWlLk6GJQsqaUBKTNV-1">
          <mxGeometry x="390" y="660" width="120" height="30" as="geometry" />
        </mxCell>
        <mxCell id="U3Z7cktMEqCGYMDvR2EI-25" value="" style="edgeStyle=orthogonalEdgeStyle;rounded=0;orthogonalLoop=1;jettySize=auto;html=1;" edge="1" parent="WIyWlLk6GJQsqaUBKTNV-1" source="U3Z7cktMEqCGYMDvR2EI-22" target="U3Z7cktMEqCGYMDvR2EI-24">
          <mxGeometry relative="1" as="geometry" />
        </mxCell>
        <mxCell id="U3Z7cktMEqCGYMDvR2EI-22" value="current [dx, dy] = auto [dx, dy]&lt;div&gt;i = 0&lt;/div&gt;" style="whiteSpace=wrap;html=1;" vertex="1" parent="WIyWlLk6GJQsqaUBKTNV-1">
          <mxGeometry x="390" y="700" width="120" height="40" as="geometry" />
        </mxCell>
        <mxCell id="U3Z7cktMEqCGYMDvR2EI-27" value="" style="edgeStyle=orthogonalEdgeStyle;rounded=0;orthogonalLoop=1;jettySize=auto;html=1;" edge="1" parent="WIyWlLk6GJQsqaUBKTNV-1" source="U3Z7cktMEqCGYMDvR2EI-24" target="U3Z7cktMEqCGYMDvR2EI-26">
          <mxGeometry relative="1" as="geometry" />
        </mxCell>
        <mxCell id="U3Z7cktMEqCGYMDvR2EI-38" style="edgeStyle=orthogonalEdgeStyle;rounded=0;orthogonalLoop=1;jettySize=auto;html=1;exitX=0;exitY=0.5;exitDx=0;exitDy=0;entryX=0;entryY=0.5;entryDx=0;entryDy=0;" edge="1" parent="WIyWlLk6GJQsqaUBKTNV-1" source="U3Z7cktMEqCGYMDvR2EI-24" target="U3Z7cktMEqCGYMDvR2EI-16">
          <mxGeometry relative="1" as="geometry" />
        </mxCell>
        <mxCell id="U3Z7cktMEqCGYMDvR2EI-24" value="i &amp;lt; ditections.size()" style="rhombus;whiteSpace=wrap;html=1;" vertex="1" parent="WIyWlLk6GJQsqaUBKTNV-1">
          <mxGeometry x="380" y="760" width="140" height="70" as="geometry" />
        </mxCell>
        <mxCell id="U3Z7cktMEqCGYMDvR2EI-29" value="" style="edgeStyle=orthogonalEdgeStyle;rounded=0;orthogonalLoop=1;jettySize=auto;html=1;" edge="1" parent="WIyWlLk6GJQsqaUBKTNV-1" source="U3Z7cktMEqCGYMDvR2EI-26" target="U3Z7cktMEqCGYMDvR2EI-28">
          <mxGeometry relative="1" as="geometry" />
        </mxCell>
        <mxCell id="U3Z7cktMEqCGYMDvR2EI-26" value="calculate X and Y" style="whiteSpace=wrap;html=1;" vertex="1" parent="WIyWlLk6GJQsqaUBKTNV-1">
          <mxGeometry x="390" y="850" width="120" height="30" as="geometry" />
        </mxCell>
        <mxCell id="U3Z7cktMEqCGYMDvR2EI-31" value="" style="edgeStyle=orthogonalEdgeStyle;rounded=0;orthogonalLoop=1;jettySize=auto;html=1;" edge="1" parent="WIyWlLk6GJQsqaUBKTNV-1" source="U3Z7cktMEqCGYMDvR2EI-28" target="U3Z7cktMEqCGYMDvR2EI-30">
          <mxGeometry relative="1" as="geometry" />
        </mxCell>
        <mxCell id="U3Z7cktMEqCGYMDvR2EI-35" value="" style="edgeStyle=orthogonalEdgeStyle;rounded=0;orthogonalLoop=1;jettySize=auto;html=1;" edge="1" parent="WIyWlLk6GJQsqaUBKTNV-1" source="U3Z7cktMEqCGYMDvR2EI-28" target="U3Z7cktMEqCGYMDvR2EI-34">
          <mxGeometry relative="1" as="geometry" />
        </mxCell>
        <mxCell id="U3Z7cktMEqCGYMDvR2EI-28" value="X&amp;gt;=0 &amp;amp;&amp;amp; X&amp;lt;N &amp;amp;&amp;amp; Y&amp;gt;=0 &amp;amp;&amp;amp; Y&amp;lt;M" style="rhombus;whiteSpace=wrap;html=1;" vertex="1" parent="WIyWlLk6GJQsqaUBKTNV-1">
          <mxGeometry x="400" y="900" width="100" height="60" as="geometry" />
        </mxCell>
        <mxCell id="U3Z7cktMEqCGYMDvR2EI-33" value="" style="edgeStyle=orthogonalEdgeStyle;rounded=0;orthogonalLoop=1;jettySize=auto;html=1;" edge="1" parent="WIyWlLk6GJQsqaUBKTNV-1" source="U3Z7cktMEqCGYMDvR2EI-30" target="U3Z7cktMEqCGYMDvR2EI-32">
          <mxGeometry relative="1" as="geometry" />
        </mxCell>
        <mxCell id="U3Z7cktMEqCGYMDvR2EI-30" value="calculate value of element of vector map" style="whiteSpace=wrap;html=1;" vertex="1" parent="WIyWlLk6GJQsqaUBKTNV-1">
          <mxGeometry x="390" y="980" width="120" height="50" as="geometry" />
        </mxCell>
        <mxCell id="U3Z7cktMEqCGYMDvR2EI-36" style="edgeStyle=orthogonalEdgeStyle;rounded=0;orthogonalLoop=1;jettySize=auto;html=1;exitX=1;exitY=0.5;exitDx=0;exitDy=0;entryX=0.5;entryY=1;entryDx=0;entryDy=0;" edge="1" parent="WIyWlLk6GJQsqaUBKTNV-1" source="U3Z7cktMEqCGYMDvR2EI-32" target="U3Z7cktMEqCGYMDvR2EI-34">
          <mxGeometry relative="1" as="geometry" />
        </mxCell>
        <mxCell id="U3Z7cktMEqCGYMDvR2EI-32" value="put this element into the queue" style="whiteSpace=wrap;html=1;" vertex="1" parent="WIyWlLk6GJQsqaUBKTNV-1">
          <mxGeometry x="390" y="1050" width="120" height="30" as="geometry" />
        </mxCell>
        <mxCell id="U3Z7cktMEqCGYMDvR2EI-37" style="edgeStyle=orthogonalEdgeStyle;rounded=0;orthogonalLoop=1;jettySize=auto;html=1;exitX=0.5;exitY=0;exitDx=0;exitDy=0;entryX=1;entryY=0.5;entryDx=0;entryDy=0;" edge="1" parent="WIyWlLk6GJQsqaUBKTNV-1" source="U3Z7cktMEqCGYMDvR2EI-34" target="U3Z7cktMEqCGYMDvR2EI-24">
          <mxGeometry relative="1" as="geometry">
            <Array as="points">
              <mxPoint x="595" y="795" />
            </Array>
          </mxGeometry>
        </mxCell>
        <mxCell id="U3Z7cktMEqCGYMDvR2EI-34" value="take next element of vector directions" style="whiteSpace=wrap;html=1;" vertex="1" parent="WIyWlLk6GJQsqaUBKTNV-1">
          <mxGeometry x="540" y="910" width="110" height="40" as="geometry" />
        </mxCell>
        <mxCell id="U3Z7cktMEqCGYMDvR2EI-42" value="" style="edgeStyle=orthogonalEdgeStyle;rounded=0;orthogonalLoop=1;jettySize=auto;html=1;" edge="1" parent="WIyWlLk6GJQsqaUBKTNV-1" source="U3Z7cktMEqCGYMDvR2EI-39" target="U3Z7cktMEqCGYMDvR2EI-41">
          <mxGeometry relative="1" as="geometry" />
        </mxCell>
        <mxCell id="U3Z7cktMEqCGYMDvR2EI-39" value="i = 0" style="whiteSpace=wrap;html=1;" vertex="1" parent="WIyWlLk6GJQsqaUBKTNV-1">
          <mxGeometry x="550" y="550" width="90" height="30" as="geometry" />
        </mxCell>
        <mxCell id="U3Z7cktMEqCGYMDvR2EI-44" value="" style="edgeStyle=orthogonalEdgeStyle;rounded=0;orthogonalLoop=1;jettySize=auto;html=1;" edge="1" parent="WIyWlLk6GJQsqaUBKTNV-1" source="U3Z7cktMEqCGYMDvR2EI-41" target="U3Z7cktMEqCGYMDvR2EI-43">
          <mxGeometry relative="1" as="geometry" />
        </mxCell>
        <mxCell id="U3Z7cktMEqCGYMDvR2EI-46" value="" style="edgeStyle=orthogonalEdgeStyle;rounded=0;orthogonalLoop=1;jettySize=auto;html=1;" edge="1" parent="WIyWlLk6GJQsqaUBKTNV-1" source="U3Z7cktMEqCGYMDvR2EI-41" target="U3Z7cktMEqCGYMDvR2EI-45">
          <mxGeometry relative="1" as="geometry" />
        </mxCell>
        <mxCell id="U3Z7cktMEqCGYMDvR2EI-41" value="i &amp;lt; N" style="rhombus;whiteSpace=wrap;html=1;" vertex="1" parent="WIyWlLk6GJQsqaUBKTNV-1">
          <mxGeometry x="680" y="540" width="80" height="50" as="geometry" />
        </mxCell>
        <mxCell id="U3Z7cktMEqCGYMDvR2EI-43" value="Finish" style="ellipse;whiteSpace=wrap;html=1;" vertex="1" parent="WIyWlLk6GJQsqaUBKTNV-1">
          <mxGeometry x="810" y="540" width="80" height="50" as="geometry" />
        </mxCell>
        <mxCell id="U3Z7cktMEqCGYMDvR2EI-48" value="" style="edgeStyle=orthogonalEdgeStyle;rounded=0;orthogonalLoop=1;jettySize=auto;html=1;" edge="1" parent="WIyWlLk6GJQsqaUBKTNV-1" source="U3Z7cktMEqCGYMDvR2EI-45" target="U3Z7cktMEqCGYMDvR2EI-47">
          <mxGeometry relative="1" as="geometry" />
        </mxCell>
        <mxCell id="U3Z7cktMEqCGYMDvR2EI-45" value="j = 0" style="whiteSpace=wrap;html=1;" vertex="1" parent="WIyWlLk6GJQsqaUBKTNV-1">
          <mxGeometry x="680" y="610" width="80" height="30" as="geometry" />
        </mxCell>
        <mxCell id="U3Z7cktMEqCGYMDvR2EI-50" value="" style="edgeStyle=orthogonalEdgeStyle;rounded=0;orthogonalLoop=1;jettySize=auto;html=1;" edge="1" parent="WIyWlLk6GJQsqaUBKTNV-1" source="U3Z7cktMEqCGYMDvR2EI-47" target="U3Z7cktMEqCGYMDvR2EI-49">
          <mxGeometry relative="1" as="geometry" />
        </mxCell>
        <mxCell id="U3Z7cktMEqCGYMDvR2EI-53" style="edgeStyle=orthogonalEdgeStyle;rounded=0;orthogonalLoop=1;jettySize=auto;html=1;exitX=1;exitY=0.5;exitDx=0;exitDy=0;entryX=1;entryY=0.5;entryDx=0;entryDy=0;" edge="1" parent="WIyWlLk6GJQsqaUBKTNV-1" source="U3Z7cktMEqCGYMDvR2EI-47" target="U3Z7cktMEqCGYMDvR2EI-51">
          <mxGeometry relative="1" as="geometry">
            <Array as="points">
              <mxPoint x="800" y="685" />
              <mxPoint x="800" y="810" />
            </Array>
          </mxGeometry>
        </mxCell>
        <mxCell id="U3Z7cktMEqCGYMDvR2EI-47" value="j &amp;lt; M" style="rhombus;whiteSpace=wrap;html=1;" vertex="1" parent="WIyWlLk6GJQsqaUBKTNV-1">
          <mxGeometry x="680" y="660" width="80" height="50" as="geometry" />
        </mxCell>
        <mxCell id="U3Z7cktMEqCGYMDvR2EI-52" value="" style="edgeStyle=orthogonalEdgeStyle;rounded=0;orthogonalLoop=1;jettySize=auto;html=1;" edge="1" parent="WIyWlLk6GJQsqaUBKTNV-1" source="U3Z7cktMEqCGYMDvR2EI-49" target="U3Z7cktMEqCGYMDvR2EI-51">
          <mxGeometry relative="1" as="geometry" />
        </mxCell>
        <mxCell id="U3Z7cktMEqCGYMDvR2EI-49" value="output the element of vector map" style="shape=parallelogram;perimeter=parallelogramPerimeter;whiteSpace=wrap;html=1;fixedSize=1;" vertex="1" parent="WIyWlLk6GJQsqaUBKTNV-1">
          <mxGeometry x="660" y="730" width="120" height="40" as="geometry" />
        </mxCell>
        <mxCell id="U3Z7cktMEqCGYMDvR2EI-54" style="edgeStyle=orthogonalEdgeStyle;rounded=0;orthogonalLoop=1;jettySize=auto;html=1;exitX=0;exitY=0.5;exitDx=0;exitDy=0;entryX=0;entryY=0.5;entryDx=0;entryDy=0;" edge="1" parent="WIyWlLk6GJQsqaUBKTNV-1" source="U3Z7cktMEqCGYMDvR2EI-51" target="U3Z7cktMEqCGYMDvR2EI-41">
          <mxGeometry relative="1" as="geometry">
            <Array as="points">
              <mxPoint x="650" y="810" />
              <mxPoint x="650" y="565" />
            </Array>
          </mxGeometry>
        </mxCell>
        <mxCell id="U3Z7cktMEqCGYMDvR2EI-51" value="switch to the next&lt;div&gt;&amp;nbsp;line&lt;/div&gt;" style="shape=parallelogram;perimeter=parallelogramPerimeter;whiteSpace=wrap;html=1;fixedSize=1;" vertex="1" parent="WIyWlLk6GJQsqaUBKTNV-1">
          <mxGeometry x="660" y="790" width="120" height="40" as="geometry" />
        </mxCell>
        <mxCell id="U3Z7cktMEqCGYMDvR2EI-55" value="+" style="text;html=1;align=center;verticalAlign=middle;whiteSpace=wrap;rounded=0;" vertex="1" parent="WIyWlLk6GJQsqaUBKTNV-1">
          <mxGeometry x="490" y="540" width="60" height="30" as="geometry" />
        </mxCell>
        <mxCell id="U3Z7cktMEqCGYMDvR2EI-56" value="+" style="text;html=1;align=center;verticalAlign=middle;whiteSpace=wrap;rounded=0;" vertex="1" parent="WIyWlLk6GJQsqaUBKTNV-1">
          <mxGeometry x="670" y="580" width="60" height="30" as="geometry" />
        </mxCell>
        <mxCell id="U3Z7cktMEqCGYMDvR2EI-57" value="+" style="text;html=1;align=center;verticalAlign=middle;whiteSpace=wrap;rounded=0;" vertex="1" parent="WIyWlLk6GJQsqaUBKTNV-1">
          <mxGeometry x="670" y="700" width="60" height="30" as="geometry" />
        </mxCell>
        <mxCell id="U3Z7cktMEqCGYMDvR2EI-58" value="+" style="text;html=1;align=center;verticalAlign=middle;whiteSpace=wrap;rounded=0;" vertex="1" parent="WIyWlLk6GJQsqaUBKTNV-1">
          <mxGeometry x="390" y="820" width="60" height="30" as="geometry" />
        </mxCell>
        <mxCell id="U3Z7cktMEqCGYMDvR2EI-59" value="+" style="text;html=1;align=center;verticalAlign=middle;whiteSpace=wrap;rounded=0;" vertex="1" parent="WIyWlLk6GJQsqaUBKTNV-1">
          <mxGeometry x="390" y="950" width="60" height="30" as="geometry" />
        </mxCell>
        <mxCell id="U3Z7cktMEqCGYMDvR2EI-60" value="-" style="text;html=1;align=center;verticalAlign=middle;whiteSpace=wrap;rounded=0;" vertex="1" parent="WIyWlLk6GJQsqaUBKTNV-1">
          <mxGeometry x="740" y="540" width="60" height="30" as="geometry" />
        </mxCell>
        <mxCell id="U3Z7cktMEqCGYMDvR2EI-61" value="-" style="text;html=1;align=center;verticalAlign=middle;whiteSpace=wrap;rounded=0;" vertex="1" parent="WIyWlLk6GJQsqaUBKTNV-1">
          <mxGeometry x="740" y="660" width="60" height="30" as="geometry" />
        </mxCell>
        <mxCell id="U3Z7cktMEqCGYMDvR2EI-62" value="-" style="text;html=1;align=center;verticalAlign=middle;whiteSpace=wrap;rounded=0;" vertex="1" parent="WIyWlLk6GJQsqaUBKTNV-1">
          <mxGeometry x="400" y="580" width="60" height="30" as="geometry" />
        </mxCell>
        <mxCell id="U3Z7cktMEqCGYMDvR2EI-63" value="-" style="text;html=1;align=center;verticalAlign=middle;whiteSpace=wrap;rounded=0;" vertex="1" parent="WIyWlLk6GJQsqaUBKTNV-1">
          <mxGeometry x="350" y="770" width="60" height="30" as="geometry" />
        </mxCell>
        <mxCell id="U3Z7cktMEqCGYMDvR2EI-64" value="-" style="text;html=1;align=center;verticalAlign=middle;whiteSpace=wrap;rounded=0;" vertex="1" parent="WIyWlLk6GJQsqaUBKTNV-1">
          <mxGeometry x="480" y="900" width="60" height="30" as="geometry" />
        </mxCell>
      </root>
    </mxGraphModel>
  </diagram>
</mxfile>
